{
  "accessors": [
    {
      "bufferView": 2,
      "componentType": 5126,
      "count": 5936,
      "max": [
        1.784977912902832,
        2.117189407348633,
        1.842908263206482
      ],
      "min": [
        -2.7949726581573486,
        -1.421723484992981,
        -1.053272008895874
      ],
      "type": "VEC3"
    },
    {
      "bufferView": 2,
      "byteOffset": 71232,
      "componentType": 5126,
      "count": 5936,
      "max": [
        0.9997787475585938,
        0.99989253282547,
        0.998522937297821
      ],
      "min": [
        -0.9945259690284729,
        -0.9994043111801147,
        -0.9998440146446228
      ],
      "type": "VEC3"
    },
    {
      "bufferView": 1,
      "componentType": 5126,
      "count": 5936,
      "max": [
        0.8065944910049438,
        0.9797701239585876
      ],
      "min": [
        0.016324907541275024,
        0.010430634021759033
      ],
      "type": "VEC2"
    },
    {
      "bufferView": 0,
      "componentType": 5125,
      "count": 27456,
      "type": "SCALAR"
    },
    {
      "bufferView": 2,
      "byteOffset": 142464,
      "componentType": 5126,
      "count": 120,
      "max": [
        1.9915802478790283,
        1.4618809223175049,
        2.121032238006592
      ],
      "min": [
        -1.2455894947052002,
        -0.1481674164533615,
        -1.463356614112854
      ],
      "type": "VEC3"
    },
    {
      "bufferView": 2,
      "byteOffset": 143904,
      "componentType": 5126,
      "count": 120,
      "max": [
        0.964565634727478,
        0.9920710921287537,
        0.6868332624435425
      ],
      "min": [
        -0.9780564904212952,
        -0.9956265091896057,
        -0.9298211932182312
      ],
      "type": "VEC3"
    },
    {
      "bufferView": 1,
      "byteOffset": 47488,
      "componentType": 5126,
      "count": 120,
      "max": [
        0.7941814661026001,
        0.9819387197494507
      ],
      "min": [
        0.51723712682724,
        0.7545977830886841
      ],
      "type": "VEC2"
    },
    {
      "bufferView": 0,
      "byteOffset": 109824,
      "componentType": 5125,
      "count": 384,
      "type": "SCALAR"
    },
    {
      "bufferView": 2,
      "byteOffset": 145344,
      "componentType": 5126,
      "count": 504,
      "max": [
        0.8957778215408325,
        4.141154766082764,
        0.19213059544563293
      ],
      "min": [
        -0.6156094670295715,
        -6.880213737487793,
        -0.19213061034679413
      ],
      "type": "VEC3"
    },
    {
      "bufferView": 2,
      "byteOffset": 151392,
      "componentType": 5126,
      "count": 504,
      "max": [
        0.9997652769088745,
        0.9210726618766785,
        0.9999986290931702
      ],
      "min": [
        -0.9999205470085144,
        -1.0,
        -0.9999982714653015
      ],
      "type": "VEC3"
    },
    {
      "bufferView": 1,
      "byteOffset": 48448,
      "componentType": 5126,
      "count": 504,
      "max": [
        0.9941027760505676,
        0.96004319190979
      ],
      "min": [
        0.9447543621063232,
        0.4638866186141968
      ],
      "type": "VEC2"
    },
    {
      "bufferView": 0,
      "byteOffset": 111360,
      "componentType": 5125,
      "count": 2292,
      "type": "SCALAR"
    },
    {
      "bufferView": 2,
      "byteOffset": 157440,
      "componentType": 5126,
      "count": 1827,
      "max": [
        1.467439889907837,
        -0.39703378081321716,
        1.5991562604904175
      ],
      "min": [
        -0.5987981557846069,
        -2.458244800567627,
        -0.738312840461731
      ],
      "type": "VEC3"
    },
    {
      "bufferView": 2,
      "byteOffset": 179364,
      "componentType": 5126,
      "count": 1827,
      "max": [
        0.9999363422393799,
        0.9976783990859985,
        0.8931010961532593
      ],
      "min": [
        -0.9999094605445862,
        -0.9993643164634705,
        -0.9928260445594788
      ],
      "type": "VEC3"
    },
    {
      "bufferView": 1,
      "byteOffset": 52480,
      "componentType": 5126,
      "count": 1827,
      "max": [
        0.8097801208496094,
        0.984460175037384
      ],
      "min": [
        0.03072173148393631,
        0.0101737380027771
      ],
      "type": "VEC2"
    },
    {
      "bufferView": 0,
      "byteOffset": 120528,
      "componentType": 5125,
      "count": 8448,
      "type": "SCALAR"
    },
    {
      "bufferView": 2,
      "byteOffset": 201288,
      "componentType": 5126,
      "count": 535,
      "max": [
        4.690151214599609,
        -0.008319943211972713,
        1.0824850797653198
      ],
      "min": [
        1.507948398590088,
        -2.6812267303466797,
        -1.0820462703704834
      ],
      "type": "VEC3"
    },
    {
      "bufferView": 2,
      "byteOffset": 207708,
      "componentType": 5126,
      "count": 535,
      "max": [
        0.9921277761459351,
        0.9935802817344666,
        0.9975491762161255
      ],
      "min": [
        -0.9971138834953308,
        -0.989105224609375,
        -0.997881293296814
      ],
      "type": "VEC3"
    },
    {
      "bufferView": 1,
      "byteOffset": 67096,
      "componentType": 5126,
      "count": 535,
      "max": [
        0.6866481304168701,
        0.8889960050582886
      ],
      "min": [
        0.029673680663108826,
        0.011432647705078125
      ],
      "type": "VEC2"
    },
    {
      "bufferView": 0,
      "byteOffset": 154320,
      "componentType": 5125,
      "count": 2304,
      "type": "SCALAR"
    },
    {
      "bufferView": 2,
      "byteOffset": 214128,
      "componentType": 5126,
      "count": 272,
      "max": [
        1.435262680053711,
        -0.16136059165000916,
        1.638828992843628
      ],
      "min": [
        -1.1920944452285767,
        -2.4308879375457764,
        -3.2394731044769287
      ],
      "type": "VEC3"
    },
    {
      "bufferView": 2,
      "byteOffset": 217392,
      "componentType": 5126,
      "count": 272,
      "max": [
        0.9047073721885681,
        0.9812585711479187,
        0.9718876481056213
      ],
      "min": [
        -0.9256961345672607,
        -0.9812984466552734,
        -0.7963109016418457
      ],
      "type": "VEC3"
    },
    {
      "bufferView": 1,
      "byteOffset": 71376,
      "componentType": 5126,
      "count": 272,
      "max": [
        0.9873700141906738,
        0.40469682216644287
      ],
      "min": [
        0.9233577251434326,
        0.2874947786331177
      ],
      "type": "VEC2"
    },
    {
      "bufferView": 0,
      "byteOffset": 163536,
      "componentType": 5125,
      "count": 408,
      "type": "SCALAR"
    },
    {
      "bufferView": 2,
      "byteOffset": 220656,
      "componentType": 5126,
      "count": 128,
      "max": [
        1.39543616771698,
        -0.9461674690246582,
        0.22061342000961304
      ],
      "min": [
        -0.8944164514541626,
        -1.3601957559585571,
        -0.05028022080659866
      ],
      "type": "VEC3"
    },
    {
      "bufferView": 2,
      "byteOffset": 222192,
      "componentType": 5126,
      "count": 128,
      "max": [
        0.26118168234825134,
        0.9942095279693604,
        0.9999101161956787
      ],
      "min": [
        -0.20774565637111664,
        -0.998904287815094,
        -0.9989388585090637
      ],
      "type": "VEC3"
    },
    {
      "bufferView": 1,
      "byteOffset": 73552,
      "componentType": 5126,
      "count": 128,
      "max": [
        0.9345007538795471,
        0.5092483758926392
      ],
      "min": [
        0.9170640110969543,
        0.4013773798942566
      ],
      "type": "VEC2"
    },
    {
      "bufferView": 0,
      "byteOffset": 165168,
      "componentType": 5125,
      "count": 504,
      "type": "SCALAR"
    },
    {
      "bufferView": 2,
      "byteOffset": 223728,
      "componentType": 5126,
      "count": 128,
      "max": [
        1.4772592782974243,
        0.37198078632354736,
        0.30151277780532837
      ],
      "min": [
        -1.018423080444336,
        -0.3584609627723694,
        0.009515814483165741
      ],
      "type": "VEC3"
    },
    {
      "bufferView": 2,
      "byteOffset": 225264,
      "componentType": 5126,
      "count": 128,
      "max": [
        0.30690330266952515,
        0.9705957770347595,
        0.9999047517776489
      ],
      "min": [
        -0.2595312297344208,
        -0.9789506196975708,
        -0.998925507068634
      ],
      "type": "VEC3"
    },
    {
      "bufferView": 1,
      "byteOffset": 74576,
      "componentType": 5126,
      "count": 128,
      "max": [
        0.9345007538795471,
        0.5092483758926392
      ],
      "min": [
        0.9170640110969543,
        0.4013773798942566
      ],
      "type": "VEC2"
    },
    {
      "bufferView": 0,
      "byteOffset": 167184,
      "componentType": 5125,
      "count": 504,
      "type": "SCALAR"
    },
    {
      "bufferView": 2,
      "byteOffset": 226800,
      "componentType": 5126,
      "count": 288,
      "max": [
        1.8115828037261963,
        -0.16109970211982727,
        1.641034483909607
      ],
      "min": [
        -1.2279576063156128,
        -2.799647808074951,
        -3.146711587905884
      ],
      "type": "VEC3"
    },
    {
      "bufferView": 2,
      "byteOffset": 230256,
      "componentType": 5126,
      "count": 288,
      "max": [
        0.9655856490135193,
        0.9733868837356567,
        0.9662998914718628
      ],
      "min": [
        -0.9205718040466309,
        -0.9734165668487549,
        -0.8925566077232361
      ],
      "type": "VEC3"
    },
    {
      "bufferView": 1,
      "byteOffset": 75600,
      "componentType": 5126,
      "count": 288,
      "max": [
        0.8744266629219055,
        0.8003565669059753
      ],
      "min": [
        0.8133611083030701,
        0.7067561745643616
      ],
      "type": "VEC2"
    },
    {
      "bufferView": 0,
      "byteOffset": 169200,
      "componentType": 5125,
      "count": 432,
      "type": "SCALAR"
    },
    {
      "bufferView": 2,
      "byteOffset": 233712,
      "componentType": 5126,
      "count": 272,
      "max": [
        1.5625653266906738,
        -0.21832780539989471,
        1.6410577297210693
      ],
      "min": [
        -1.4536253213882446,
        -2.8185110092163086,
        -2.865649700164795
      ],
      "type": "VEC3"
    },
    {
      "bufferView": 2,
      "byteOffset": 236976,
      "componentType": 5126,
      "count": 272,
      "max": [
        0.9965506792068481,
        0.9480832815170288,
        0.9409446716308594
      ],
      "min": [
        -0.9331714510917664,
        -0.9481069445610046,
        -0.8224686980247498
      ],
      "type": "VEC3"
    },
    {
      "bufferView": 1,
      "byteOffset": 77904,
      "componentType": 5126,
      "count": 272,
      "max": [
        0.9873700141906738,
        0.40469682216644287
      ],
      "min": [
        0.9233577251434326,
        0.2874947786331177
      ],
      "type": "VEC2"
    },
    {
      "bufferView": 0,
      "byteOffset": 170928,
      "componentType": 5125,
      "count": 408,
      "type": "SCALAR"
    },
    {
      "bufferView": 2,
      "byteOffset": 240240,
      "componentType": 5126,
      "count": 128,
      "max": [
        1.39543616771698,
        -0.9461674690246582,
        0.22061342000961304
      ],
      "min": [
        -0.8944164514541626,
        -1.3601957559585571,
        -0.05028022080659866
      ],
      "type": "VEC3"
    },
    {
      "bufferView": 2,
      "byteOffset": 241776,
      "componentType": 5126,
      "count": 128,
      "max": [
        0.26118168234825134,
        0.9942095279693604,
        0.9999101161956787
      ],
      "min": [
        -0.20774565637111664,
        -0.998904287815094,
        -0.9989388585090637
      ],
      "type": "VEC3"
    },
    {
      "bufferView": 1,
      "byteOffset": 80080,
      "componentType": 5126,
      "count": 128,
      "max": [
        0.9345007538795471,
        0.5092483758926392
      ],
      "min": [
        0.9170640110969543,
        0.4013773798942566
      ],
      "type": "VEC2"
    },
    {
      "bufferView": 0,
      "byteOffset": 172560,
      "componentType": 5125,
      "count": 504,
      "type": "SCALAR"
    },
    {
      "bufferView": 2,
      "byteOffset": 243312,
      "componentType": 5126,
      "count": 128,
      "max": [
        1.8582115173339844,
        0.4768507182598114,
        0.5906530022621155
      ],
      "min": [
        -1.0840225219726563,
        -0.43635696172714233,
        0.006782121956348419
      ],
      "type": "VEC3"
    },
    {
      "bufferView": 2,
      "byteOffset": 244848,
      "componentType": 5126,
      "count": 128,
      "max": [
        0.3774920403957367,
        0.9674163460731506,
        0.9979138374328613
      ],
      "min": [
        -0.3288440406322479,
        -0.9732103943824768,
        -0.9954960942268372
      ],
      "type": "VEC3"
    },
    {
      "bufferView": 1,
      "byteOffset": 81104,
      "componentType": 5126,
      "count": 128,
      "max": [
        0.9345007538795471,
        0.5092483758926392
      ],
      "min": [
        0.9170640110969543,
        0.4013773798942566
      ],
      "type": "VEC2"
    },
    {
      "bufferView": 0,
      "byteOffset": 174576,
      "componentType": 5125,
      "count": 504,
      "type": "SCALAR"
    },
    {
      "bufferView": 2,
      "byteOffset": 246384,
      "componentType": 5126,
      "count": 288,
      "max": [
        2.1347849369049072,
        -0.33292341232299805,
        1.4831651449203491
      ],
      "min": [
        -1.067245602607727,
        -3.0810976028442383,
        -3.147224187850952
      ],
      "type": "VEC3"
    },
    {
      "bufferView": 2,
      "byteOffset": 249840,
      "componentType": 5126,
      "count": 288,
      "max": [
        0.969313383102417,
        0.9381939768791199,
        0.9575250148773193
      ],
      "min": [
        -0.8810916543006897,
        -0.9382082223892212,
        -0.9194999933242798
      ],
      "type": "VEC3"
    },
    {
      "bufferView": 1,
      "byteOffset": 82128,
      "componentType": 5126,
      "count": 288,
      "max": [
        0.8744266629219055,
        0.8003565669059753
      ],
      "min": [
        0.8133611083030701,
        0.7067561745643616
      ],
      "type": "VEC2"
    },
    {
      "bufferView": 0,
      "byteOffset": 176592,
      "componentType": 5125,
      "count": 432,
      "type": "SCALAR"
    }
  ],
  "asset": {
    "extras": {
      "author": "GardenBee (https://sketchfab.com/pocketpastel456)",
      "license": "CC-BY-4.0 (http://creativecommons.org/licenses/by/4.0/)",
      "source": "https://sketchfab.com/3d-models/single-flower-rose-red-45742e6e3ffa449996f70bc87556db93",
      "title": "Single flower / rose red"
    },
    "generator": "Sketchfab-13.37.1",
    "version": "2.0"
  },
  "bufferViews": [
    {
      "buffer": 0,
      "byteLength": 178320,
      "name": "floatBufferViews",
      "target": 34963
    },
    {
      "buffer": 0,
      "byteLength": 84432,
      "byteOffset": 178320,
      "byteStride": 8,
      "name": "floatBufferViews",
      "target": 34962
    },
    {
      "buffer": 0,
      "byteLength": 253296,
      "byteOffset": 262752,
      "byteStride": 12,
      "name": "floatBufferViews",
      "target": 34962
    }
  ],
  "buffers": [
    {
      "byteLength": 516048,
      "uri": "scene.bin"
    }
  ],
  "images": [
    {
      "uri": "textures/Material_9.002_baseColor.png"
    },
    {
      "uri": "textures/Material_9_baseColor.png"
    }
  ],
  "materials": [
    {
      "doubleSided": true,
      "name": "Material_9.002",
      "pbrMetallicRoughness": {
        "baseColorTexture": {
          "index": 0
        },
        "metallicFactor": 0.0
      }
    },
    {
      "doubleSided": true,
      "name": "Material_9",
      "pbrMetallicRoughness": {
        "baseColorTexture": {
          "index": 1
        },
        "metallicFactor": 0.327189,
        "roughnessFactor": 0.686636
      }
    }
  ],
  "meshes": [
    {
      "name": "Object_0",
      "primitives": [
        {
          "attributes": {
            "NORMAL": 1,
            "POSITION": 0,
            "TEXCOORD_0": 2
          },
          "indices": 3,
          "material": 0,
          "mode": 4
        }
      ]
    },
    {
      "name": "Object_1",
      "primitives": [
        {
          "attributes": {
            "NORMAL": 5,
            "POSITION": 4,
            "TEXCOORD_0": 6
          },
          "indices": 7,
          "material": 1,
          "mode": 4
        }
      ]
    },
    {
      "name": "Object_2",
      "primitives": [
        {
          "attributes": {
            "NORMAL": 9,
            "POSITION": 8,
            "TEXCOORD_0": 10
          },
          "indices": 11,
          "material": 1,
          "mode": 4
        }
      ]
    },
    {
      "name": "Object_3",
      "primitives": [
        {
          "attributes": {
            "NORMAL": 13,
            "POSITION": 12,
            "TEXCOORD_0": 14
          },
          "indices": 15,
          "material": 0,
          "mode": 4
        }
      ]
    },
    {
      "name": "Object_4",
      "primitives": [
        {
          "attributes": {
            "NORMAL": 17,
            "POSITION": 16,
            "TEXCOORD_0": 18
          },
          "indices": 19,
          "material": 0,
          "mode": 4
        }
      ]
    },
    {
      "name": "Object_5",
      "primitives": [
        {
          "attributes": {
            "NORMAL": 21,
            "POSITION": 20,
            "TEXCOORD_0": 22
          },
          "indices": 23,
          "material": 1,
          "mode": 4
        }
      ]
    },
    {
      "name": "Object_6",
      "primitives": [
        {
          "attributes": {
            "NORMAL": 25,
            "POSITION": 24,
            "TEXCOORD_0": 26
          },
          "indices": 27,
          "material": 1,
          "mode": 4
        }
      ]
    },
    {
      "name": "Object_7",
      "primitives": [
        {
          "attributes": {
            "NORMAL": 29,
            "POSITION": 28,
            "TEXCOORD_0": 30
          },
          "indices": 31,
          "material": 1,
          "mode": 4
        }
      ]
    },
    {
      "name": "Object_8",
      "primitives": [
        {
          "attributes": {
            "NORMAL": 33,
            "POSITION": 32,
            "TEXCOORD_0": 34
          },
          "indices": 35,
          "material": 1,
          "mode": 4
        }
      ]
    },
    {
      "name": "Object_9",
      "primitives": [
        {
          "attributes": {
            "NORMAL": 37,
            "POSITION": 36,
            "TEXCOORD_0": 38
          },
          "indices": 39,
          "material": 1,
          "mode": 4
        }
      ]
    },
    {
      "name": "Object_10",
      "primitives": [
        {
          "attributes": {
            "NORMAL": 41,
            "POSITION": 40,
            "TEXCOORD_0": 42
          },
          "indices": 43,
          "material": 1,
          "mode": 4
        }
      ]
    },
    {
      "name": "Object_11",
      "primitives": [
        {
          "attributes": {
            "NORMAL": 45,
            "POSITION": 44,
            "TEXCOORD_0": 46
          },
          "indices": 47,
          "material": 1,
          "mode": 4
        }
      ]
    },
    {
      "name": "Object_12",
      "primitives": [
        {
          "attributes": {
            "NORMAL": 49,
            "POSITION": 48,
            "TEXCOORD_0": 50
          },
          "indices": 51,
          "material": 1,
          "mode": 4
        }
      ]
    }
  ],
  "nodes": [
    {
      "children": [
        1
      ],
      "matrix": [
        1.0,
        0.0,
        0.0,
        0.0,
        0.0,
        2.220446049250313e-16,
        -1.0,
        0.0,
        0.0,
        1.0,
        2.220446049250313e-16,
        0.0,
        0.0,
        0.0,
        0.0,
        1.0
      ],
      "name": "Sketchfab_model"
    },
    {
      "children": [
        2
      ],
      "name": "root"
    },
    {
      "children": [
        3,
        5,
        7,
        9,
        11,
        13,
        15,
        17,
        19,
        21,
        23,
        25,
        27
      ],
      "matrix": [
        1.0,
        0.0,
        0.0,
        0.0,
        0.0,
        2.220446049250313e-16,
        1.0,
        0.0,
        0.0,
        -1.0,
        2.220446049250313e-16,
        0.0,
        0.0,
        0.0,
        0.0,
        1.0
      ],
      "name": "GLTF_SceneRootNode"
    },
    {
      "children": [
        4
      ],
      "matrix": [
        -0.6023912996543137,
        1.4101075862527068e-10,
        -0.7982009284013561,
        0.0,
        0.7982009284013526,
        -9.424311198102941e-08,
        -0.602391299654311,
        0.0,
        -7.53098829964216e-08,
        -0.9999999999999956,
        5.6658675751108944e-08,
        0.0,
        -0.1267986297607422,
        6.0924787521362305,
        6.9416375160217285,
        1.0
      ],
      "name": "Plane.058_0"
    },
    {
      "mesh": 0,
      "name": "Object_4"
    },
    {
      "children": [
        6
      ],
      "matrix": [
        0.9864285109891322,
        -1.194357697811843e-09,
        -0.1641913295754791,
        0.0,
        0.02583951511687245,
        -0.9875390068121706,
        0.15523862110620895,
        0.0,
        -0.1621453427215488,
        -0.15737442620842873,
        -0.9741366320025542,
        0.0,
        -0.7507095336914063,
        4.813051700592041,
        7.876917839050293,
        1.0
      ],
      "name": "Plane.059_1"
    },
    {
      "mesh": 1,
      "name": "Object_6"
    },
    {
      "children": [
        8
      ],
      "matrix": [
        1.0,
        0.0,
        0.0,
        0.0,
        0.0,
        1.0,
        0.0,
        0.0,
        0.0,
        0.0,
        1.0,
        0.0,
        -0.7854175567626953,
        0.28662943840026855,
        7.431453227996826,
        1.0
      ],
      "name": "Cylinder.012_2"
    },
    {
      "mesh": 2,
      "name": "Object_8"
    },
    {
      "children": [
        10
      ],
      "matrix": [
        0.016553758753401038,
        -2.9061265449659146e-08,
        0.9998629771479357,
        0.0,
        -0.9998629771479322,
        -8.965058317933483e-08,
        0.016553758753398373,
        0.0,
        8.915722587987673e-08,
        -0.9999999999999956,
        -3.054133745905574e-08,
        0.0,
        -0.7418403625488281,
        6.0924787521362305,
        7.0448808670043945,
        1.0
      ],
      "name": "Plane.060_3"
    },
    {
      "mesh": 3,
      "name": "Object_10"
    },
    {
      "children": [
        12
      ],
      "matrix": [
        0.38548722863197327,
        0.0,
        0.0,
        0.0,
        0.0,
        0.5699013471603394,
        0.0,
        0.0,
        0.0,
        0.0,
        0.38548722863197327,
        0.0,
        -0.7327461242675781,
        6.627641677856445,
        7.437760829925537,
        1.0
      ],
      "name": "Cylinder.013_4"
    },
    {
      "mesh": 4,
      "name": "Object_12"
    },
    {
      "children": [
        14
      ],
      "matrix": [
        0.6273931335944565,
        -0.23226328293292592,
        0.0,
        0.0,
        0.23226328293292592,
        0.6273931335944565,
        0.0,
        0.0,
        0.0,
        0.0,
        0.6690055131912231,
        0.0,
        -0.596186637878418,
        2.4472031593322754,
        5.3653717041015625,
        1.0
      ],
      "name": "Plane.061_5"
    },
    {
      "mesh": 5,
      "name": "Object_14"
    },
    {
      "children": [
        16
      ],
      "matrix": [
        0.24588752753097107,
        1.1781337291699118e-08,
        -0.5010456263518153,
        0.0,
        0.47615787974069124,
        0.17371694705275975,
        0.2336739004448189,
        0.0,
        0.1559499703338619,
        -0.530405333861044,
        0.0765322444868768,
        0.0,
        -0.36423587799072266,
        2.5164554119110107,
        7.263871669769287,
        1.0
      ],
      "name": "BezierCurve.024_6"
    },
    {
      "mesh": 6,
      "name": "Object_16"
    },
    {
      "children": [
        18
      ],
      "matrix": [
        0.46897031626135705,
        -0.24973731555899117,
        -0.17089620114177093,
        0.0,
        0.17581639076335015,
        -0.0316783628138446,
        0.5287650460743036,
        0.0,
        -0.24629826448078915,
        -0.49813165973304724,
        0.052051996762160525,
        0.0,
        -0.5551176071166992,
        2.090878486633301,
        6.86184549331665,
        1.0
      ],
      "name": "BezierCurve.025_7"
    },
    {
      "mesh": 7,
      "name": "Object_18"
    },
    {
      "children": [
        20
      ],
      "matrix": [
        0.22882964885877816,
        -0.23890948144459365,
        0.2727071880975501,
        0.0,
        0.25037327257762854,
        0.3373695848028145,
        0.0854688307831435,
        0.0,
        -0.2622215614876113,
        0.11363961665040483,
        0.3195869178657127,
        0.0,
        0.5300998687744141,
        1.4966100454330444,
        6.0776824951171875,
        1.0
      ],
      "name": "Plane.062_8"
    },
    {
      "mesh": 8,
      "name": "Object_20"
    },
    {
      "children": [
        22
      ],
      "matrix": [
        -0.440292431669495,
        0.16434120640420233,
        0.11981110051495372,
        0.0,
        0.17943433555395844,
        0.4483927876488547,
        0.04435455678193294,
        0.0,
        -0.09573944321206034,
        0.08459303753299816,
        -0.46786544701752514,
        0.0,
        -0.9324064254760742,
        -1.0829107761383057,
        9.419301986694336,
        1.0
      ],
      "name": "Plane.063_9"
    },
    {
      "mesh": 9,
      "name": "Object_22"
    },
    {
      "children": [
        24
      ],
      "matrix": [
        -0.1052172240549483,
        3.657032316821747e-08,
        0.5481210921354391,
        0.0,
        -0.5208950274656342,
        0.17371695687313563,
        -0.0999909252776988,
        0.0,
        -0.17060217467935174,
        -0.5304053306446994,
        -0.03274872669189118,
        0.0,
        -1.6329450607299805,
        -0.8087804317474365,
        7.780902862548828,
        1.0
      ],
      "name": "BezierCurve.026_10"
    },
    {
      "mesh": 10,
      "name": "Object_24"
    },
    {
      "children": [
        26
      ],
      "matrix": [
        -0.40738915406622617,
        -0.24973733427254866,
        0.2883968392705143,
        0.0,
        -0.30889443312273845,
        -0.03167835733150598,
        -0.46377592298882486,
        0.0,
        0.22388770001177727,
        -0.49813165069968773,
        -0.11509366722899093,
        0.0,
        -1.3429031372070313,
        -1.2343575954437256,
        8.118448257446289,
        1.0
      ],
      "name": "BezierCurve.027_11"
    },
    {
      "mesh": 11,
      "name": "Object_26"
    },
    {
      "children": [
        28
      ],
      "matrix": [
        -0.2925843106191571,
        -0.23890948401254214,
        -0.20279703792068177,
        0.0,
        -0.2640446105568727,
        0.3373695833872823,
        -0.016496704145176136,
        0.0,
        0.16877442390166206,
        0.11363961545408206,
        -0.3773740047863238,
        0.0,
        -2.1832265853881836,
        -1.8286254405975342,
        9.160783767700195,
        1.0
      ],
      "name": "Plane.064_12"
    },
    {
      "mesh": 12,
      "name": "Object_28"
    }
  ],
  "samplers": [
    {
      "magFilter": 9729,
      "minFilter": 9987,
      "wrapS": 10497,
      "wrapT": 10497
    }
  ],
  "scene": 0,
  "scenes": [
    {
      "name": "Sketchfab_Scene",
      "nodes": [
        0
      ]
    }
  ],
  "textures": [
    {
      "sampler": 0,
      "source": 0
    },
    {
      "sampler": 0,
      "source": 1
    }
  ]
}
