{
  "accessors": [
    {
      "bufferView": 0,
      "componentType": 5125,
      "count": 648,
      "type": "SCALAR"
    },
    {
      "bufferView": 1,
      "componentType": 5126,
      "count": 192,
      "max": [
        27.4999961853027,
        32.5000076293945,
        5.49999666213989
      ],
      "min": [
        -20.5000152587891,
        1.09999752044678,
        4.19998455047607
      ],
      "type": "VEC3"
    },
    {
      "bufferView": 2,
      "componentType": 5126,
      "count": 192,
      "type": "VEC3"
    },
    {
      "bufferView": 3,
      "componentType": 5126,
      "count": 192,
      "type": "VEC4"
    },
    {
      "bufferView": 4,
      "componentType": 5126,
      "count": 192,
      "type": "VEC2"
    },
    {
      "bufferView": 5,
      "componentType": 5125,
      "count": 852,
      "type": "SCALAR"
    },
    {
      "bufferView": 6,
      "componentType": 5126,
      "count": 234,
      "max": [
        5.50000381469727,
        25.5,
        1.00000381469727
      ],
      "min": [
        4.0999927520752,
        -24.5000076293945,
        -1.50000476837158
      ],
      "type": "VEC3"
    },
    {
      "bufferView": 7,
      "componentType": 5126,
      "count": 234,
      "type": "VEC3"
    },
    {
      "bufferView": 8,
      "componentType": 5126,
      "count": 234,
      "type": "VEC4"
    },
    {
      "bufferView": 9,
      "componentType": 5126,
      "count": 234,
      "type": "VEC2"
    },
    {
      "bufferView": 10,
      "componentType": 5125,
      "count": 852,
      "type": "SCALAR"
    },
    {
      "bufferView": 11,
      "componentType": 5126,
      "count": 234,
      "max": [
        24.5,
        1.00000190734863,
        -4.09999704360962
      ],
      "min": [
        -25.4999961853027,
        -1.5,
        -5.50000047683716
      ],
      "type": "VEC3"
    },
    {
      "bufferView": 12,
      "componentType": 5126,
      "count": 234,
      "type": "VEC3"
    },
    {
      "bufferView": 13,
      "componentType": 5126,
      "count": 234,
      "type": "VEC4"
    },
    {
      "bufferView": 14,
      "componentType": 5126,
      "count": 234,
      "type": "VEC2"
    },
    {
      "bufferView": 15,
      "componentType": 5125,
      "count": 900,
      "type": "SCALAR"
    },
    {
      "bufferView": 16,
      "componentType": 5126,
      "count": 599,
      "max": [
        2.56030464172363,
        22.9603271484375,
        31.4103088378906
      ],
      "min": [
        2.23969602584839,
        -22.9353084564209,
        -0.410300254821777
      ],
      "type": "VEC3"
    },
    {
      "bufferView": 17,
      "componentType": 5126,
      "count": 599,
      "type": "VEC3"
    },
    {
      "bufferView": 18,
      "componentType": 5126,
      "count": 599,
      "type": "VEC4"
    },
    {
      "bufferView": 19,
      "componentType": 5126,
      "count": 599,
      "type": "VEC2"
    },
    {
      "bufferView": 20,
      "componentType": 5125,
      "count": 3477,
      "type": "SCALAR"
    },
    {
      "bufferView": 21,
      "componentType": 5126,
      "count": 849,
      "max": [
        1.00000071525574,
        22.5000228881836,
        34.5000076293945
      ],
      "min": [
        -9.00000286102295,
        19.9058609008789,
        1.49999904632568
      ],
      "type": "VEC3"
    },
    {
      "bufferView": 22,
      "componentType": 5126,
      "count": 849,
      "type": "VEC3"
    },
    {
      "bufferView": 23,
      "componentType": 5126,
      "count": 849,
      "type": "VEC4"
    },
    {
      "bufferView": 24,
      "componentType": 5126,
      "count": 849,
      "type": "VEC2"
    },
    {
      "bufferView": 25,
      "componentType": 5125,
      "count": 2346,
      "type": "SCALAR"
    },
    {
      "bufferView": 26,
      "componentType": 5126,
      "count": 604,
      "max": [
        27.5000038146973,
        34.5,
        8.10000610351562
      ],
      "min": [
        24.9999694824219,
        1.49998569488525,
        -0.119128704071045
      ],
      "type": "VEC3"
    },
    {
      "bufferView": 27,
      "componentType": 5126,
      "count": 604,
      "type": "VEC3"
    },
    {
      "bufferView": 28,
      "componentType": 5126,
      "count": 604,
      "type": "VEC4"
    },
    {
      "bufferView": 29,
      "componentType": 5126,
      "count": 604,
      "type": "VEC2"
    },
    {
      "bufferView": 30,
      "componentType": 5125,
      "count": 492,
      "type": "SCALAR"
    },
    {
      "bufferView": 31,
      "componentType": 5126,
      "count": 136,
      "max": [
        1.2500057220459,
        3.00000190734863,
        7.99999618530273
      ],
      "min": [
        -1.2500057220459,
        1.9073486328125e-06,
        -7.99999618530273
      ],
      "type": "VEC3"
    },
    {
      "bufferView": 32,
      "componentType": 5126,
      "count": 136,
      "type": "VEC3"
    },
    {
      "bufferView": 33,
      "componentType": 5126,
      "count": 136,
      "type": "VEC4"
    },
    {
      "bufferView": 34,
      "componentType": 5126,
      "count": 136,
      "type": "VEC2"
    },
    {
      "bufferView": 35,
      "componentType": 5125,
      "count": 492,
      "type": "SCALAR"
    },
    {
      "bufferView": 36,
      "componentType": 5126,
      "count": 136,
      "max": [
        1.2500057220459,
        3.00000190734863,
        7.99999570846558
      ],
      "min": [
        -1.2500057220459,
        1.9073486328125e-06,
        -7.99999570846558
      ],
      "type": "VEC3"
    },
    {
      "bufferView": 37,
      "componentType": 5126,
      "count": 136,
      "type": "VEC3"
    },
    {
      "bufferView": 38,
      "componentType": 5126,
      "count": 136,
      "type": "VEC4"
    },
    {
      "bufferView": 39,
      "componentType": 5126,
      "count": 136,
      "type": "VEC2"
    },
    {
      "bufferView": 40,
      "componentType": 5125,
      "count": 2928,
      "type": "SCALAR"
    },
    {
      "bufferView": 41,
      "componentType": 5126,
      "count": 845,
      "max": [
        1.25000047683716,
        23.5000019073486,
        -1.9073486328125e-06
      ],
      "min": [
        -1.25000059604645,
        -23.5000038146973,
        -30.0000038146973
      ],
      "type": "VEC3"
    },
    {
      "bufferView": 42,
      "componentType": 5126,
      "count": 845,
      "type": "VEC3"
    },
    {
      "bufferView": 43,
      "componentType": 5126,
      "count": 845,
      "type": "VEC4"
    },
    {
      "bufferView": 44,
      "componentType": 5126,
      "count": 845,
      "type": "VEC2"
    },
    {
      "bufferView": 45,
      "componentType": 5125,
      "count": 324,
      "type": "SCALAR"
    },
    {
      "bufferView": 46,
      "componentType": 5126,
      "count": 96,
      "max": [
        1.20000398159027,
        20.5,
        -2.00000190734863
      ],
      "min": [
        -1.20000386238098,
        -20.5,
        -27.5000019073486
      ],
      "type": "VEC3"
    },
    {
      "bufferView": 47,
      "componentType": 5126,
      "count": 96,
      "type": "VEC3"
    },
    {
      "bufferView": 48,
      "componentType": 5126,
      "count": 96,
      "type": "VEC4"
    },
    {
      "bufferView": 49,
      "componentType": 5126,
      "count": 96,
      "type": "VEC2"
    },
    {
      "bufferView": 50,
      "componentType": 5125,
      "count": 324,
      "type": "SCALAR"
    },
    {
      "bufferView": 51,
      "componentType": 5126,
      "count": 96,
      "max": [
        5.50000476837158,
        24.9999980926514,
        2.5
      ],
      "min": [
        -5.49999523162842,
        -25.0000038146973,
        0.0
      ],
      "type": "VEC3"
    },
    {
      "bufferView": 52,
      "componentType": 5126,
      "count": 96,
      "type": "VEC3"
    },
    {
      "bufferView": 53,
      "componentType": 5126,
      "count": 96,
      "type": "VEC4"
    },
    {
      "bufferView": 54,
      "componentType": 5126,
      "count": 96,
      "type": "VEC2"
    },
    {
      "bufferView": 55,
      "componentType": 5125,
      "count": 3024,
      "type": "SCALAR"
    },
    {
      "bufferView": 56,
      "componentType": 5126,
      "count": 766,
      "max": [
        8.63950443267822,
        -10.5864181518555,
        5.50000858306885
      ],
      "min": [
        -2.36050581932068,
        -64.0864334106445,
        3.00000190734863
      ],
      "type": "VEC3"
    },
    {
      "bufferView": 57,
      "componentType": 5126,
      "count": 766,
      "type": "VEC3"
    },
    {
      "bufferView": 58,
      "componentType": 5126,
      "count": 766,
      "type": "VEC4"
    },
    {
      "bufferView": 59,
      "componentType": 5126,
      "count": 766,
      "type": "VEC2"
    },
    {
      "bufferView": 60,
      "componentType": 5125,
      "count": 900,
      "type": "SCALAR"
    },
    {
      "bufferView": 61,
      "componentType": 5126,
      "count": 599,
      "max": [
        2.56030464172363,
        22.9603271484375,
        31.4103088378906
      ],
      "min": [
        2.23969602584839,
        -22.9353103637695,
        -0.410299301147461
      ],
      "type": "VEC3"
    },
    {
      "bufferView": 62,
      "componentType": 5126,
      "count": 599,
      "type": "VEC3"
    },
    {
      "bufferView": 63,
      "componentType": 5126,
      "count": 599,
      "type": "VEC4"
    },
    {
      "bufferView": 64,
      "componentType": 5126,
      "count": 599,
      "type": "VEC2"
    }
  ],
  "asset": {
    "generator": "Adobe Substance 3D Painter 12.1.4",
    "version": "2.0"
  },
  "bufferViews": [
    {
      "buffer": 0,
      "byteLength": 2592,
      "target": 34963
    },
    {
      "buffer": 0,
      "byteLength": 2304,
      "byteOffset": 2592,
      "target": 34962
    },
    {
      "buffer": 0,
      "byteLength": 2304,
      "byteOffset": 4896,
      "target": 34962
    },
    {
      "buffer": 0,
      "byteLength": 3072,
      "byteOffset": 7200,
      "target": 34962
    },
    {
      "buffer": 0,
      "byteLength": 1536,
      "byteOffset": 10272,
      "target": 34962
    },
    {
      "buffer": 0,
      "byteLength": 3408,
      "byteOffset": 11808,
      "target": 34963
    },
    {
      "buffer": 0,
      "byteLength": 2808,
      "byteOffset": 15216,
      "target": 34962
    },
    {
      "buffer": 0,
      "byteLength": 2808,
      "byteOffset": 18024,
      "target": 34962
    },
    {
      "buffer": 0,
      "byteLength": 3744,
      "byteOffset": 20832,
      "target": 34962
    },
    {
      "buffer": 0,
      "byteLength": 1872,
      "byteOffset": 24576,
      "target": 34962
    },
    {
      "buffer": 0,
      "byteLength": 3408,
      "byteOffset": 26448,
      "target": 34963
    },
    {
      "buffer": 0,
      "byteLength": 2808,
      "byteOffset": 29856,
      "target": 34962
    },
    {
      "buffer": 0,
      "byteLength": 2808,
      "byteOffset": 32664,
      "target": 34962
    },
    {
      "buffer": 0,
      "byteLength": 3744,
      "byteOffset": 35472,
      "target": 34962
    },
    {
      "buffer": 0,
      "byteLength": 1872,
      "byteOffset": 39216,
      "target": 34962
    },
    {
      "buffer": 0,
      "byteLength": 3600,
      "byteOffset": 41088,
      "target": 34963
    },
    {
      "buffer": 0,
      "byteLength": 7188,
      "byteOffset": 44688,
      "target": 34962
    },
    {
      "buffer": 0,
      "byteLength": 7188,
      "byteOffset": 51876,
      "target": 34962
    },
    {
      "buffer": 0,
      "byteLength": 9584,
      "byteOffset": 59064,
      "target": 34962
    },
    {
      "buffer": 0,
      "byteLength": 4792,
      "byteOffset": 68648,
      "target": 34962
    },
    {
      "buffer": 0,
      "byteLength": 13908,
      "byteOffset": 73440,
      "target": 34963
    },
    {
      "buffer": 0,
      "byteLength": 10188,
      "byteOffset": 87348,
      "target": 34962
    },
    {
      "buffer": 0,
      "byteLength": 10188,
      "byteOffset": 97536,
      "target": 34962
    },
    {
      "buffer": 0,
      "byteLength": 13584,
      "byteOffset": 107724,
      "target": 34962
    },
    {
      "buffer": 0,
      "byteLength": 6792,
      "byteOffset": 121308,
      "target": 34962
    },
    {
      "buffer": 0,
      "byteLength": 9384,
      "byteOffset": 128100,
      "target": 34963
    },
    {
      "buffer": 0,
      "byteLength": 7248,
      "byteOffset": 137484,
      "target": 34962
    },
    {
      "buffer": 0,
      "byteLength": 7248,
      "byteOffset": 144732,
      "target": 34962
    },
    {
      "buffer": 0,
      "byteLength": 9664,
      "byteOffset": 151980,
      "target": 34962
    },
    {
      "buffer": 0,
      "byteLength": 4832,
      "byteOffset": 161644,
      "target": 34962
    },
    {
      "buffer": 0,
      "byteLength": 1968,
      "byteOffset": 166476,
      "target": 34963
    },
    {
      "buffer": 0,
      "byteLength": 1632,
      "byteOffset": 168444,
      "target": 34962
    },
    {
      "buffer": 0,
      "byteLength": 1632,
      "byteOffset": 170076,
      "target": 34962
    },
    {
      "buffer": 0,
      "byteLength": 2176,
      "byteOffset": 171708,
      "target": 34962
    },
    {
      "buffer": 0,
      "byteLength": 1088,
      "byteOffset": 173884,
      "target": 34962
    },
    {
      "buffer": 0,
      "byteLength": 1968,
      "byteOffset": 174972,
      "target": 34963
    },
    {
      "buffer": 0,
      "byteLength": 1632,
      "byteOffset": 176940,
      "target": 34962
    },
    {
      "buffer": 0,
      "byteLength": 1632,
      "byteOffset": 178572,
      "target": 34962
    },
    {
      "buffer": 0,
      "byteLength": 2176,
      "byteOffset": 180204,
      "target": 34962
    },
    {
      "buffer": 0,
      "byteLength": 1088,
      "byteOffset": 182380,
      "target": 34962
    },
    {
      "buffer": 0,
      "byteLength": 11712,
      "byteOffset": 183468,
      "target": 34963
    },
    {
      "buffer": 0,
      "byteLength": 10140,
      "byteOffset": 195180,
      "target": 34962
    },
    {
      "buffer": 0,
      "byteLength": 10140,
      "byteOffset": 205320,
      "target": 34962
    },
    {
      "buffer": 0,
      "byteLength": 13520,
      "byteOffset": 215460,
      "target": 34962
    },
    {
      "buffer": 0,
      "byteLength": 6760,
      "byteOffset": 228980,
      "target": 34962
    },
    {
      "buffer": 0,
      "byteLength": 1296,
      "byteOffset": 235740,
      "target": 34963
    },
    {
      "buffer": 0,
      "byteLength": 1152,
      "byteOffset": 237036,
      "target": 34962
    },
    {
      "buffer": 0,
      "byteLength": 1152,
      "byteOffset": 238188,
      "target": 34962
    },
    {
      "buffer": 0,
      "byteLength": 1536,
      "byteOffset": 239340,
      "target": 34962
    },
    {
      "buffer": 0,
      "byteLength": 768,
      "byteOffset": 240876,
      "target": 34962
    },
    {
      "buffer": 0,
      "byteLength": 1296,
      "byteOffset": 241644,
      "target": 34963
    },
    {
      "buffer": 0,
      "byteLength": 1152,
      "byteOffset": 242940,
      "target": 34962
    },
    {
      "buffer": 0,
      "byteLength": 1152,
      "byteOffset": 244092,
      "target": 34962
    },
    {
      "buffer": 0,
      "byteLength": 1536,
      "byteOffset": 245244,
      "target": 34962
    },
    {
      "buffer": 0,
      "byteLength": 768,
      "byteOffset": 246780,
      "target": 34962
    },
    {
      "buffer": 0,
      "byteLength": 12096,
      "byteOffset": 247548,
      "target": 34963
    },
    {
      "buffer": 0,
      "byteLength": 9192,
      "byteOffset": 259644,
      "target": 34962
    },
    {
      "buffer": 0,
      "byteLength": 9192,
      "byteOffset": 268836,
      "target": 34962
    },
    {
      "buffer": 0,
      "byteLength": 12256,
      "byteOffset": 278028,
      "target": 34962
    },
    {
      "buffer": 0,
      "byteLength": 6128,
      "byteOffset": 290284,
      "target": 34962
    },
    {
      "buffer": 0,
      "byteLength": 3600,
      "byteOffset": 296412,
      "target": 34963
    },
    {
      "buffer": 0,
      "byteLength": 7188,
      "byteOffset": 300012,
      "target": 34962
    },
    {
      "buffer": 0,
      "byteLength": 7188,
      "byteOffset": 307200,
      "target": 34962
    },
    {
      "buffer": 0,
      "byteLength": 9584,
      "byteOffset": 314388,
      "target": 34962
    },
    {
      "buffer": 0,
      "byteLength": 4792,
      "byteOffset": 323972,
      "target": 34962
    }
  ],
  "buffers": [
    {
      "byteLength": 328764,
      "uri": "Paint_Hive.bin"
    }
  ],
  "images": [
    {
      "uri": "M_Frame_Comb_baseColor.png"
    },
    {
      "uri": "M_Frame_Comb_occlusionRoughnessMetallic.png"
    },
    {
      "uri": "M_Frame_Comb_normal.png"
    },
    {
      "uri": "M_Frame_Wood_baseColor.png"
    },
    {
      "uri": "M_Frame_Wood_occlusionRoughnessMetallic.png"
    },
    {
      "uri": "M_Frame_Wood_normal.png"
    },
    {
      "uri": "M_Hive_Glass_baseColor.png"
    },
    {
      "uri": "M_Hive_Glass_occlusionRoughnessMetallic.png"
    },
    {
      "uri": "M_Hive_Glass_normal.png"
    },
    {
      "uri": "M_Hive_Wood_baseColor.png"
    },
    {
      "uri": "M_Hive_Wood_occlusionRoughnessMetallic.png"
    },
    {
      "uri": "M_Hive_Wood_normal.png"
    }
  ],
  "materials": [
    {
      "alphaMode": "OPAQUE",
      "name": "M_Frame_Comb",
      "normalTexture": {
        "index": 2
      },
      "occlusionTexture": {
        "index": 1
      },
      "pbrMetallicRoughness": {
        "baseColorTexture": {
          "index": 0
        },
        "metallicRoughnessTexture": {
          "index": 1
        }
      }
    },
    {
      "alphaMode": "OPAQUE",
      "name": "M_Frame_Wood",
      "normalTexture": {
        "index": 5
      },
      "occlusionTexture": {
        "index": 4
      },
      "pbrMetallicRoughness": {
        "baseColorTexture": {
          "index": 3
        },
        "metallicRoughnessTexture": {
          "index": 4
        }
      }
    },
    {
      "alphaMode": "OPAQUE",
      "name": "M_Hive_Glass",
      "normalTexture": {
        "index": 8
      },
      "occlusionTexture": {
        "index": 7
      },
      "pbrMetallicRoughness": {
        "baseColorTexture": {
          "index": 6
        },
        "metallicRoughnessTexture": {
          "index": 7
        }
      }
    },
    {
      "alphaMode": "OPAQUE",
      "name": "M_Hive_Wood",
      "normalTexture": {
        "index": 11
      },
      "occlusionTexture": {
        "index": 10
      },
      "pbrMetallicRoughness": {
        "baseColorTexture": {
          "index": 9
        },
        "metallicRoughnessTexture": {
          "index": 10
        }
      }
    }
  ],
  "meshes": [
    {
      "name": "Brood_Shutter_Right",
      "primitives": [
        {
          "attributes": {
            "NORMAL": 2,
            "POSITION": 1,
            "TANGENT": 3,
            "TEXCOORD_0": 4
          },
          "indices": 0,
          "material": 3,
          "mode": 4
        }
      ]
    },
    {
      "name": "Brood_Rail_Left",
      "primitives": [
        {
          "attributes": {
            "NORMAL": 7,
            "POSITION": 6,
            "TANGENT": 8,
            "TEXCOORD_0": 9
          },
          "indices": 5,
          "material": 3,
          "mode": 4
        }
      ]
    },
    {
      "name": "BroodRailRight",
      "primitives": [
        {
          "attributes": {
            "NORMAL": 12,
            "POSITION": 11,
            "TANGENT": 13,
            "TEXCOORD_0": 14
          },
          "indices": 10,
          "material": 3,
          "mode": 4
        }
      ]
    },
    {
      "name": "Brood_Glass_Right",
      "primitives": [
        {
          "attributes": {
            "NORMAL": 17,
            "POSITION": 16,
            "TANGENT": 18,
            "TEXCOORD_0": 19
          },
          "indices": 15,
          "material": 2,
          "mode": 4
        }
      ]
    },
    {
      "name": "Brood_End_Front",
      "primitives": [
        {
          "attributes": {
            "NORMAL": 22,
            "POSITION": 21,
            "TANGENT": 23,
            "TEXCOORD_0": 24
          },
          "indices": 20,
          "material": 3,
          "mode": 4
        }
      ]
    },
    {
      "name": "Brood_End_Back",
      "primitives": [
        {
          "attributes": {
            "NORMAL": 27,
            "POSITION": 26,
            "TANGENT": 28,
            "TEXCOORD_0": 29
          },
          "indices": 25,
          "material": 3,
          "mode": 4
        }
      ]
    },
    {
      "name": "Base_Leg_Front",
      "primitives": [
        {
          "attributes": {
            "NORMAL": 32,
            "POSITION": 31,
            "TANGENT": 33,
            "TEXCOORD_0": 34
          },
          "indices": 30,
          "material": 3,
          "mode": 4
        }
      ]
    },
    {
      "name": "Base_Leg_Back",
      "primitives": [
        {
          "attributes": {
            "NORMAL": 37,
            "POSITION": 36,
            "TANGENT": 38,
            "TEXCOORD_0": 39
          },
          "indices": 35,
          "material": 3,
          "mode": 4
        }
      ]
    },
    {
      "name": "Frame-0",
      "primitives": [
        {
          "attributes": {
            "NORMAL": 42,
            "POSITION": 41,
            "TANGENT": 43,
            "TEXCOORD_0": 44
          },
          "indices": 40,
          "material": 1,
          "mode": 4
        }
      ]
    },
    {
      "name": "Frame-1",
      "primitives": [
        {
          "attributes": {
            "NORMAL": 47,
            "POSITION": 46,
            "TANGENT": 48,
            "TEXCOORD_0": 49
          },
          "indices": 45,
          "material": 0,
          "mode": 4
        }
      ]
    },
    {
      "name": "Roof",
      "primitives": [
        {
          "attributes": {
            "NORMAL": 52,
            "POSITION": 51,
            "TANGENT": 53,
            "TEXCOORD_0": 54
          },
          "indices": 50,
          "material": 3,
          "mode": 4
        }
      ]
    },
    {
      "name": "BaseFloor",
      "primitives": [
        {
          "attributes": {
            "NORMAL": 57,
            "POSITION": 56,
            "TANGENT": 58,
            "TEXCOORD_0": 59
          },
          "indices": 55,
          "material": 3,
          "mode": 4
        }
      ]
    },
    {
      "name": "Brood_Glass_Left",
      "primitives": [
        {
          "attributes": {
            "NORMAL": 62,
            "POSITION": 61,
            "TANGENT": 63,
            "TEXCOORD_0": 64
          },
          "indices": 60,
          "material": 2,
          "mode": 4
        }
      ]
    }
  ],
  "nodes": [
    {
      "children": [
        1,
        3,
        5,
        7,
        9,
        11,
        13,
        15,
        17,
        20,
        22,
        24
      ],
      "name": "Root",
      "rotation": [
        -0.70710676908493,
        0.0,
        0.0,
        0.70710676908493
      ]
    },
    {
      "children": [
        2
      ],
      "name": "Brood_Shutter_Right",
      "rotation": [
        -0.499999940395355,
        0.500000178813934,
        0.499999940395355,
        -0.499999761581421
      ],
      "translation": [
        0.0,
        2.5,
        3.99999976158142
      ]
    },
    {
      "mesh": 0,
      "name": "Brood_Shutter_Right"
    },
    {
      "children": [
        4
      ],
      "name": "Brood_Rail_Left",
      "rotation": [
        8.74227765734759e-08,
        0.0,
        0.0,
        1.0
      ],
      "translation": [
        -2.38418579101562e-07,
        -0.50000011920929,
        37.5
      ]
    },
    {
      "mesh": 1,
      "name": "Brood_Rail_Left"
    },
    {
      "children": [
        6
      ],
      "name": "BroodRailRight",
      "rotation": [
        -0.5,
        -0.499999910593033,
        0.5,
        0.5
      ],
      "scale": [
        -1.00000023841858,
        -1.00000011920929,
        -1.00000011920929
      ],
      "translation": [
        -2.38418579101562e-07,
        -0.50000011920929,
        37.5
      ]
    },
    {
      "mesh": 2,
      "name": "BroodRailRight"
    },
    {
      "children": [
        8
      ],
      "name": "Brood_Glass_Right",
      "rotation": [
        0.0,
        0.0,
        1.0,
        2.45869159698486e-07
      ],
      "translation": [
        0.0,
        0.0,
        5.49999618530273
      ]
    },
    {
      "mesh": 3,
      "name": "Brood_Glass_Right"
    },
    {
      "children": [
        10
      ],
      "name": "Brood_End_Front",
      "translation": [
        3.99999976158142,
        2.5,
        4.0
      ]
    },
    {
      "mesh": 4,
      "name": "Brood_End_Front"
    },
    {
      "children": [
        12
      ],
      "name": "Brood_End_Back",
      "rotation": [
        -0.499999940395355,
        0.500000178813934,
        0.499999940395355,
        -0.499999761581421
      ],
      "translation": [
        3.99999976158142,
        2.5,
        4.0
      ]
    },
    {
      "mesh": 5,
      "name": "Brood_End_Back"
    },
    {
      "children": [
        14
      ],
      "name": "Base_Leg_Front",
      "rotation": [
        -0.499999940395355,
        0.500000178813934,
        0.499999940395355,
        -0.499999761581421
      ],
      "translation": [
        -4.76837158203125e-07,
        22.2500076293945,
        0.0
      ]
    },
    {
      "mesh": 6,
      "name": "Base_Leg_Front"
    },
    {
      "children": [
        16
      ],
      "name": "Base_Leg_Back",
      "rotation": [
        -0.499999940395355,
        0.500000178813934,
        0.499999940395355,
        -0.499999761581421
      ],
      "translation": [
        -4.76837158203125e-07,
        -18.7499980926514,
        0.0
      ]
    },
    {
      "mesh": 7,
      "name": "Base_Leg_Back"
    },
    {
      "children": [
        18,
        19
      ],
      "name": "Frame",
      "translation": [
        0.0,
        0.0,
        37.5
      ]
    },
    {
      "mesh": 8,
      "name": "Frame-0"
    },
    {
      "mesh": 9,
      "name": "Frame-1"
    },
    {
      "children": [
        21
      ],
      "name": "Roof",
      "translation": [
        -4.88758087158203e-06,
        1.9073486328125e-06,
        38.5
      ]
    },
    {
      "mesh": 10,
      "name": "Roof"
    },
    {
      "children": [
        23
      ],
      "name": "BaseFloor",
      "translation": [
        -3.13950037956238,
        39.0864334106445,
        0.0
      ]
    },
    {
      "mesh": 11,
      "name": "BaseFloor"
    },
    {
      "children": [
        25
      ],
      "name": "Brood_Glass_Left",
      "rotation": [
        0.0,
        0.0,
        -2.98023195455244e-07,
        1.0
      ],
      "scale": [
        1.00000011920929,
        1.0,
        1.0
      ],
      "translation": [
        0.0,
        0.0,
        5.49999618530273
      ]
    },
    {
      "mesh": 12,
      "name": "Brood_Glass_Left"
    }
  ],
  "samplers": [
    {
      "magFilter": 9729,
      "minFilter": 9985,
      "wrapS": 10497,
      "wrapT": 10497
    }
  ],
  "scene": 0,
  "scenes": [
    {
      "name": "Scene",
      "nodes": [
        0
      ]
    }
  ],
  "textures": [
    {
      "sampler": 0,
      "source": 0
    },
    {
      "sampler": 0,
      "source": 1
    },
    {
      "sampler": 0,
      "source": 2
    },
    {
      "sampler": 0,
      "source": 3
    },
    {
      "sampler": 0,
      "source": 4
    },
    {
      "sampler": 0,
      "source": 5
    },
    {
      "sampler": 0,
      "source": 6
    },
    {
      "sampler": 0,
      "source": 7
    },
    {
      "sampler": 0,
      "source": 8
    },
    {
      "sampler": 0,
      "source": 9
    },
    {
      "sampler": 0,
      "source": 10
    },
    {
      "sampler": 0,
      "source": 11
    }
  ]
}