{
  "accessors": [
    {
      "bufferView": 2,
      "componentType": 5126,
      "count": 372,
      "max": [
        0.2642281949520111,
        3.5597214698791504,
        2.876901388168335
      ],
      "min": [
        -0.4294012188911438,
        -0.6373279690742493,
        -2.277282238006592
      ],
      "type": "VEC3"
    },
    {
      "bufferView": 2,
      "byteOffset": 4464,
      "componentType": 5126,
      "count": 372,
      "max": [
        0.9999929666519165,
        0.983015239238739,
        0.9724326133728027
      ],
      "min": [
        -0.9999933242797852,
        -0.9842292666435242,
        -0.9974612593650818
      ],
      "type": "VEC3"
    },
    {
      "bufferView": 1,
      "componentType": 5126,
      "count": 372,
      "max": [
        1.0,
        1.0
      ],
      "min": [
        0.0,
        0.0
      ],
      "type": "VEC2"
    },
    {
      "bufferView": 0,
      "componentType": 5125,
      "count": 1512,
      "type": "SCALAR"
    },
    {
      "bufferView": 2,
      "byteOffset": 8928,
      "componentType": 5126,
      "count": 372,
      "max": [
        0.2642281949520111,
        3.5597214698791504,
        2.87345814704895
      ],
      "min": [
        -0.45346662402153015,
        -0.582975447177887,
        -2.277282238006592
      ],
      "type": "VEC3"
    },
    {
      "bufferView": 2,
      "byteOffset": 13392,
      "componentType": 5126,
      "count": 372,
      "max": [
        0.9999929666519165,
        0.9679663777351379,
        0.9724339246749878
      ],
      "min": [
        -0.9999933242797852,
        -0.9681592583656311,
        -0.9990398287773132
      ],
      "type": "VEC3"
    },
    {
      "bufferView": 1,
      "byteOffset": 2976,
      "componentType": 5126,
      "count": 372,
      "max": [
        1.0,
        1.0
      ],
      "min": [
        0.0,
        0.0
      ],
      "type": "VEC2"
    },
    {
      "bufferView": 0,
      "byteOffset": 6048,
      "componentType": 5125,
      "count": 1512,
      "type": "SCALAR"
    },
    {
      "bufferView": 2,
      "byteOffset": 17856,
      "componentType": 5126,
      "count": 402,
      "max": [
        0.26422813534736633,
        3.559720993041992,
        2.876901626586914
      ],
      "min": [
        -0.4444740116596222,
        -0.5829752087593079,
        -2.27728271484375
      ],
      "type": "VEC3"
    },
    {
      "bufferView": 2,
      "byteOffset": 22680,
      "componentType": 5126,
      "count": 402,
      "max": [
        0.9999930262565613,
        0.9906096458435059,
        0.9725266098976135
      ],
      "min": [
        -0.9999933242797852,
        -0.9910140037536621,
        -0.9974774718284607
      ],
      "type": "VEC3"
    },
    {
      "bufferView": 1,
      "byteOffset": 5952,
      "componentType": 5126,
      "count": 402,
      "max": [
        1.0,
        1.0
      ],
      "min": [
        0.0,
        0.0
      ],
      "type": "VEC2"
    },
    {
      "bufferView": 0,
      "byteOffset": 12096,
      "componentType": 5125,
      "count": 1584,
      "type": "SCALAR"
    },
    {
      "bufferView": 2,
      "byteOffset": 27504,
      "componentType": 5126,
      "count": 372,
      "max": [
        0.2601054310798645,
        3.66963529586792,
        2.876901388168335
      ],
      "min": [
        -0.43237224221229553,
        -0.582975447177887,
        -2.2780802249908447
      ],
      "type": "VEC3"
    },
    {
      "bufferView": 2,
      "byteOffset": 31968,
      "componentType": 5126,
      "count": 372,
      "max": [
        0.9999929666519165,
        0.9679663777351379,
        0.9615907669067383
      ],
      "min": [
        -0.9999933242797852,
        -0.9681591391563416,
        -0.9974612593650818
      ],
      "type": "VEC3"
    },
    {
      "bufferView": 1,
      "byteOffset": 9168,
      "componentType": 5126,
      "count": 372,
      "max": [
        1.0,
        1.0
      ],
      "min": [
        0.0,
        0.0
      ],
      "type": "VEC2"
    },
    {
      "bufferView": 0,
      "byteOffset": 18432,
      "componentType": 5125,
      "count": 1512,
      "type": "SCALAR"
    },
    {
      "bufferView": 2,
      "byteOffset": 36432,
      "componentType": 5126,
      "count": 372,
      "max": [
        0.2799887955188751,
        3.6305174827575684,
        2.876901388168335
      ],
      "min": [
        -0.428943008184433,
        -0.582975447177887,
        -2.277282238006592
      ],
      "type": "VEC3"
    },
    {
      "bufferView": 2,
      "byteOffset": 40896,
      "componentType": 5126,
      "count": 372,
      "max": [
        0.9999929666519165,
        0.9679663777351379,
        0.9824493527412415
      ],
      "min": [
        -0.9999933242797852,
        -0.9681592583656311,
        -0.9974612593650818
      ],
      "type": "VEC3"
    },
    {
      "bufferView": 1,
      "byteOffset": 12144,
      "componentType": 5126,
      "count": 372,
      "max": [
        1.0,
        1.0
      ],
      "min": [
        0.0,
        0.0
      ],
      "type": "VEC2"
    },
    {
      "bufferView": 0,
      "byteOffset": 24480,
      "componentType": 5125,
      "count": 1512,
      "type": "SCALAR"
    },
    {
      "bufferView": 2,
      "byteOffset": 45360,
      "componentType": 5126,
      "count": 372,
      "max": [
        0.2642281949520111,
        3.341122627258301,
        2.876901388168335
      ],
      "min": [
        -0.4265327453613281,
        -0.7684109210968018,
        -2.277282238006592
      ],
      "type": "VEC3"
    },
    {
      "bufferView": 2,
      "byteOffset": 49824,
      "componentType": 5126,
      "count": 372,
      "max": [
        0.9999929666519165,
        0.9300022721290588,
        0.9724339246749878
      ],
      "min": [
        -0.9999933242797852,
        -0.928118109703064,
        -0.9974632263183594
      ],
      "type": "VEC3"
    },
    {
      "bufferView": 1,
      "byteOffset": 15120,
      "componentType": 5126,
      "count": 372,
      "max": [
        1.0,
        1.0
      ],
      "min": [
        0.0,
        0.0
      ],
      "type": "VEC2"
    },
    {
      "bufferView": 0,
      "byteOffset": 30528,
      "componentType": 5125,
      "count": 1512,
      "type": "SCALAR"
    },
    {
      "bufferView": 2,
      "byteOffset": 54288,
      "componentType": 5126,
      "count": 253,
      "max": [
        0.4227125644683838,
        3.195364475250244,
        0.6267176270484924
      ],
      "min": [
        -0.5036376714706421,
        -0.024903297424316406,
        -0.627206563949585
      ],
      "type": "VEC3"
    },
    {
      "bufferView": 2,
      "byteOffset": 57324,
      "componentType": 5126,
      "count": 253,
      "max": [
        0.997846782207489,
        0.8225089907646179,
        0.9147368669509888
      ],
      "min": [
        -0.9992837309837341,
        -0.8498629331588745,
        -0.9999929070472717
      ],
      "type": "VEC3"
    },
    {
      "bufferView": 1,
      "byteOffset": 18096,
      "componentType": 5126,
      "count": 253,
      "max": [
        1.0,
        1.0
      ],
      "min": [
        0.0,
        0.0
      ],
      "type": "VEC2"
    },
    {
      "bufferView": 0,
      "byteOffset": 36576,
      "componentType": 5125,
      "count": 1056,
      "type": "SCALAR"
    },
    {
      "bufferView": 2,
      "byteOffset": 60360,
      "componentType": 5126,
      "count": 253,
      "max": [
        0.4227125644683838,
        3.195364475250244,
        0.6267176270484924
      ],
      "min": [
        -0.5036376714706421,
        -0.024903297424316406,
        -0.627206563949585
      ],
      "type": "VEC3"
    },
    {
      "bufferView": 2,
      "byteOffset": 63396,
      "componentType": 5126,
      "count": 253,
      "max": [
        0.997846782207489,
        0.8225089907646179,
        0.9147368669509888
      ],
      "min": [
        -0.9992837309837341,
        -0.8498629331588745,
        -0.9999929070472717
      ],
      "type": "VEC3"
    },
    {
      "bufferView": 1,
      "byteOffset": 20120,
      "componentType": 5126,
      "count": 253,
      "max": [
        1.0,
        1.0
      ],
      "min": [
        0.0,
        0.0
      ],
      "type": "VEC2"
    },
    {
      "bufferView": 0,
      "byteOffset": 40800,
      "componentType": 5125,
      "count": 1056,
      "type": "SCALAR"
    },
    {
      "bufferView": 2,
      "byteOffset": 66432,
      "componentType": 5126,
      "count": 170,
      "max": [
        -1.0030754804611206,
        15.38050651550293,
        11.548080444335938
      ],
      "min": [
        -1.4828366041183472,
        13.828438758850098,
        9.001686096191406
      ],
      "type": "VEC3"
    },
    {
      "bufferView": 2,
      "byteOffset": 68472,
      "componentType": 5126,
      "count": 170,
      "max": [
        0.9388062357902527,
        0.9830001592636108,
        0.9836239814758301
      ],
      "min": [
        -0.927798330783844,
        -0.9922405481338501,
        -0.9548991322517395
      ],
      "type": "VEC3"
    },
    {
      "bufferView": 1,
      "byteOffset": 22144,
      "componentType": 5126,
      "count": 170,
      "max": [
        0.65625,
        0.9790664911270142
      ],
      "min": [
        0.34375,
        0.02093350887298584
      ],
      "type": "VEC2"
    },
    {
      "bufferView": 0,
      "byteOffset": 45024,
      "componentType": 5125,
      "count": 396,
      "type": "SCALAR"
    },
    {
      "bufferView": 2,
      "byteOffset": 70512,
      "componentType": 5126,
      "count": 170,
      "max": [
        -0.9075477123260498,
        15.43889045715332,
        11.131454467773438
      ],
      "min": [
        -1.229646921157837,
        14.52888298034668,
        8.99199104309082
      ],
      "type": "VEC3"
    },
    {
      "bufferView": 2,
      "byteOffset": 72552,
      "componentType": 5126,
      "count": 170,
      "max": [
        0.9488474726676941,
        0.9707512259483337,
        0.9320376515388489
      ],
      "min": [
        -0.9489390254020691,
        -0.9847205281257629,
        -0.9061843752861023
      ],
      "type": "VEC3"
    },
    {
      "bufferView": 1,
      "byteOffset": 23504,
      "componentType": 5126,
      "count": 170,
      "max": [
        0.65625,
        0.9790664911270142
      ],
      "min": [
        0.34375,
        0.02093350887298584
      ],
      "type": "VEC2"
    },
    {
      "bufferView": 0,
      "byteOffset": 46608,
      "componentType": 5125,
      "count": 396,
      "type": "SCALAR"
    },
    {
      "bufferView": 2,
      "byteOffset": 74592,
      "componentType": 5126,
      "count": 146,
      "max": [
        -0.3455968499183655,
        15.389636039733887,
        11.229701042175293
      ],
      "min": [
        -1.068178415298462,
        14.342611312866211,
        8.987626075744629
      ],
      "type": "VEC3"
    },
    {
      "bufferView": 2,
      "byteOffset": 76344,
      "componentType": 5126,
      "count": 146,
      "max": [
        0.9750510454177856,
        0.9632779359817505,
        0.9940642714500427
      ],
      "min": [
        -0.98337721824646,
        -0.9579634070396423,
        -0.9778369665145874
      ],
      "type": "VEC3"
    },
    {
      "bufferView": 1,
      "byteOffset": 24864,
      "componentType": 5126,
      "count": 146,
      "max": [
        0.65625,
        0.9790664911270142
      ],
      "min": [
        0.34375,
        0.02093350887298584
      ],
      "type": "VEC2"
    },
    {
      "bufferView": 0,
      "byteOffset": 48192,
      "componentType": 5125,
      "count": 360,
      "type": "SCALAR"
    },
    {
      "bufferView": 2,
      "byteOffset": 78096,
      "componentType": 5126,
      "count": 146,
      "max": [
        -0.10866877436637878,
        15.357205390930176,
        11.109356880187988
      ],
      "min": [
        -1.0616424083709717,
        15.003678321838379,
        8.997023582458496
      ],
      "type": "VEC3"
    },
    {
      "bufferView": 2,
      "byteOffset": 79848,
      "componentType": 5126,
      "count": 146,
      "max": [
        0.9357461333274841,
        0.9927945733070374,
        0.9935547709465027
      ],
      "min": [
        -0.9449819326400757,
        -0.992035984992981,
        -0.8809078931808472
      ],
      "type": "VEC3"
    },
    {
      "bufferView": 1,
      "byteOffset": 26032,
      "componentType": 5126,
      "count": 146,
      "max": [
        0.65625,
        0.9790664911270142
      ],
      "min": [
        0.34375,
        0.02093350887298584
      ],
      "type": "VEC2"
    },
    {
      "bufferView": 0,
      "byteOffset": 49632,
      "componentType": 5125,
      "count": 360,
      "type": "SCALAR"
    },
    {
      "bufferView": 2,
      "byteOffset": 81600,
      "componentType": 5126,
      "count": 146,
      "max": [
        0.4624294936656952,
        15.384517669677734,
        11.569926261901855
      ],
      "min": [
        -1.067169189453125,
        14.91631031036377,
        8.99162483215332
      ],
      "type": "VEC3"
    },
    {
      "bufferView": 2,
      "byteOffset": 83352,
      "componentType": 5126,
      "count": 146,
      "max": [
        0.8980419635772705,
        0.9982497692108154,
        0.997041642665863
      ],
      "min": [
        -0.9057897329330444,
        -0.9981723427772522,
        -0.9478006958961487
      ],
      "type": "VEC3"
    },
    {
      "bufferView": 1,
      "byteOffset": 27200,
      "componentType": 5126,
      "count": 146,
      "max": [
        0.65625,
        0.9790664911270142
      ],
      "min": [
        0.34375,
        0.02093350887298584
      ],
      "type": "VEC2"
    },
    {
      "bufferView": 0,
      "byteOffset": 51072,
      "componentType": 5125,
      "count": 360,
      "type": "SCALAR"
    },
    {
      "bufferView": 2,
      "byteOffset": 85104,
      "componentType": 5126,
      "count": 146,
      "max": [
        -0.293428897857666,
        15.864240646362305,
        11.642815589904785
      ],
      "min": [
        -1.0709469318389893,
        15.203369140625,
        9.00066089630127
      ],
      "type": "VEC3"
    },
    {
      "bufferView": 2,
      "byteOffset": 86856,
      "componentType": 5126,
      "count": 146,
      "max": [
        0.9720020890235901,
        0.9717375040054321,
        0.9936360716819763
      ],
      "min": [
        -0.996688187122345,
        -0.9754588603973389,
        -0.9893953800201416
      ],
      "type": "VEC3"
    },
    {
      "bufferView": 1,
      "byteOffset": 28368,
      "componentType": 5126,
      "count": 146,
      "max": [
        0.65625,
        0.9790664911270142
      ],
      "min": [
        0.34375,
        0.02093350887298584
      ],
      "type": "VEC2"
    },
    {
      "bufferView": 0,
      "byteOffset": 52512,
      "componentType": 5125,
      "count": 360,
      "type": "SCALAR"
    },
    {
      "bufferView": 2,
      "byteOffset": 88608,
      "componentType": 5126,
      "count": 146,
      "max": [
        -0.8959810137748718,
        15.459444046020508,
        10.797242164611816
      ],
      "min": [
        -1.1764607429504395,
        15.24907112121582,
        9.000855445861816
      ],
      "type": "VEC3"
    },
    {
      "bufferView": 2,
      "byteOffset": 90360,
      "componentType": 5126,
      "count": 146,
      "max": [
        0.8905553221702576,
        0.9999080896377563,
        0.908000111579895
      ],
      "min": [
        -0.8957595229148865,
        -0.999908447265625,
        -0.9999822378158569
      ],
      "type": "VEC3"
    },
    {
      "bufferView": 1,
      "byteOffset": 29536,
      "componentType": 5126,
      "count": 146,
      "max": [
        0.65625,
        0.9790664911270142
      ],
      "min": [
        0.34375,
        0.02093350887298584
      ],
      "type": "VEC2"
    },
    {
      "bufferView": 0,
      "byteOffset": 53952,
      "componentType": 5125,
      "count": 360,
      "type": "SCALAR"
    },
    {
      "bufferView": 2,
      "byteOffset": 92112,
      "componentType": 5126,
      "count": 146,
      "max": [
        -0.721603512763977,
        16.012496948242188,
        10.85572338104248
      ],
      "min": [
        -1.0582036972045898,
        15.323336601257324,
        8.996034622192383
      ],
      "type": "VEC3"
    },
    {
      "bufferView": 2,
      "byteOffset": 93864,
      "componentType": 5126,
      "count": 146,
      "max": [
        0.9846023917198181,
        0.9619523286819458,
        0.9544659852981567
      ],
      "min": [
        -0.9846148490905762,
        -0.9615054130554199,
        -0.8572102785110474
      ],
      "type": "VEC3"
    },
    {
      "bufferView": 1,
      "byteOffset": 30704,
      "componentType": 5126,
      "count": 146,
      "max": [
        0.65625,
        0.9790664911270142
      ],
      "min": [
        0.34375,
        0.02093350887298584
      ],
      "type": "VEC2"
    },
    {
      "bufferView": 0,
      "byteOffset": 55392,
      "componentType": 5125,
      "count": 360,
      "type": "SCALAR"
    },
    {
      "bufferView": 2,
      "byteOffset": 95616,
      "componentType": 5126,
      "count": 146,
      "max": [
        -1.0022711753845215,
        15.8959321975708,
        11.052176475524902
      ],
      "min": [
        -1.5760515928268433,
        15.320094108581543,
        9.003911972045898
      ],
      "type": "VEC3"
    },
    {
      "bufferView": 2,
      "byteOffset": 97368,
      "componentType": 5126,
      "count": 146,
      "max": [
        0.9947982430458069,
        0.97128826379776,
        0.9584861993789673
      ],
      "min": [
        -0.9929465651512146,
        -0.967120885848999,
        -0.968511164188385
      ],
      "type": "VEC3"
    },
    {
      "bufferView": 1,
      "byteOffset": 31872,
      "componentType": 5126,
      "count": 146,
      "max": [
        0.65625,
        0.9790664911270142
      ],
      "min": [
        0.34375,
        0.02093350887298584
      ],
      "type": "VEC2"
    },
    {
      "bufferView": 0,
      "byteOffset": 56832,
      "componentType": 5125,
      "count": 360,
      "type": "SCALAR"
    },
    {
      "bufferView": 2,
      "byteOffset": 99120,
      "componentType": 5126,
      "count": 812,
      "max": [
        3.387810230255127,
        15.692496299743652,
        4.869329452514648
      ],
      "min": [
        -2.788512706756592,
        -0.3260002136230469,
        -7.148160457611084
      ],
      "type": "VEC3"
    },
    {
      "bufferView": 2,
      "byteOffset": 108864,
      "componentType": 5126,
      "count": 812,
      "max": [
        0.9981359243392944,
        0.9982871413230896,
        0.9979040026664734
      ],
      "min": [
        -0.9997168183326721,
        -0.9986540675163269,
        -0.9978753924369812
      ],
      "type": "VEC3"
    },
    {
      "bufferView": 1,
      "byteOffset": 33040,
      "componentType": 5126,
      "count": 812,
      "max": [
        1.0,
        1.0
      ],
      "min": [
        0.0,
        0.0
      ],
      "type": "VEC2"
    },
    {
      "bufferView": 0,
      "byteOffset": 58272,
      "componentType": 5125,
      "count": 2880,
      "type": "SCALAR"
    }
  ],
  "asset": {
    "extras": {
      "author": "laanita (https://sketchfab.com/laanita)",
      "license": "CC-BY-4.0 (http://creativecommons.org/licenses/by/4.0/)",
      "source": "https://sketchfab.com/3d-models/lily-f904c01714f8433f9c37795d44a73346",
      "title": "Lily"
    },
    "generator": "Sketchfab-12.66.0",
    "version": "2.0"
  },
  "bufferViews": [
    {
      "buffer": 0,
      "byteLength": 69792,
      "name": "floatBufferViews",
      "target": 34963
    },
    {
      "buffer": 0,
      "byteLength": 39536,
      "byteOffset": 69792,
      "byteStride": 8,
      "name": "floatBufferViews",
      "target": 34962
    },
    {
      "buffer": 0,
      "byteLength": 118608,
      "byteOffset": 109328,
      "byteStride": 12,
      "name": "floatBufferViews",
      "target": 34962
    }
  ],
  "buffers": [
    {
      "byteLength": 227936,
      "uri": "scene.bin"
    }
  ],
  "materials": [
    {
      "doubleSided": true,
      "name": "lambert3",
      "pbrMetallicRoughness": {
        "baseColorFactor": [
          0.9899636880863927,
          0.9445645490433993,
          0.8200163382925229,
          1.0
        ],
        "metallicFactor": 0.0,
        "roughnessFactor": 0.6
      }
    },
    {
      "doubleSided": true,
      "name": "lambert5",
      "pbrMetallicRoughness": {
        "baseColorFactor": [
          0.0012304858879634741,
          0.22653400390734116,
          0.17924750562521144,
          1.0
        ],
        "metallicFactor": 0.3032549316599456,
        "roughnessFactor": 0.6
      }
    },
    {
      "doubleSided": true,
      "name": "things",
      "pbrMetallicRoughness": {
        "baseColorFactor": [
          0.09001585088471749,
          0.03883226637449396,
          0.008274816394869558,
          1.0
        ],
        "metallicFactor": 0.0,
        "roughnessFactor": 0.7115027946394012
      }
    }
  ],
  "meshes": [
    {
      "name": "pPlane1_lambert3_0",
      "primitives": [
        {
          "attributes": {
            "NORMAL": 1,
            "POSITION": 0,
            "TEXCOORD_0": 2
          },
          "indices": 3,
          "material": 0,
          "mode": 4
        }
      ]
    },
    {
      "name": "pPlane2_lambert3_0",
      "primitives": [
        {
          "attributes": {
            "NORMAL": 5,
            "POSITION": 4,
            "TEXCOORD_0": 6
          },
          "indices": 7,
          "material": 0,
          "mode": 4
        }
      ]
    },
    {
      "name": "pPlane3_lambert3_0",
      "primitives": [
        {
          "attributes": {
            "NORMAL": 9,
            "POSITION": 8,
            "TEXCOORD_0": 10
          },
          "indices": 11,
          "material": 0,
          "mode": 4
        }
      ]
    },
    {
      "name": "pPlane4_lambert3_0",
      "primitives": [
        {
          "attributes": {
            "NORMAL": 13,
            "POSITION": 12,
            "TEXCOORD_0": 14
          },
          "indices": 15,
          "material": 0,
          "mode": 4
        }
      ]
    },
    {
      "name": "pPlane5_lambert3_0",
      "primitives": [
        {
          "attributes": {
            "NORMAL": 17,
            "POSITION": 16,
            "TEXCOORD_0": 18
          },
          "indices": 19,
          "material": 0,
          "mode": 4
        }
      ]
    },
    {
      "name": "pPlane6_lambert3_0",
      "primitives": [
        {
          "attributes": {
            "NORMAL": 21,
            "POSITION": 20,
            "TEXCOORD_0": 22
          },
          "indices": 23,
          "material": 0,
          "mode": 4
        }
      ]
    },
    {
      "name": "pPlane8_lambert5_0",
      "primitives": [
        {
          "attributes": {
            "NORMAL": 25,
            "POSITION": 24,
            "TEXCOORD_0": 26
          },
          "indices": 27,
          "material": 1,
          "mode": 4
        }
      ]
    },
    {
      "name": "pPlane9_lambert5_0",
      "primitives": [
        {
          "attributes": {
            "NORMAL": 29,
            "POSITION": 28,
            "TEXCOORD_0": 30
          },
          "indices": 31,
          "material": 1,
          "mode": 4
        }
      ]
    },
    {
      "name": "pCylinder7_things_0",
      "primitives": [
        {
          "attributes": {
            "NORMAL": 33,
            "POSITION": 32,
            "TEXCOORD_0": 34
          },
          "indices": 35,
          "material": 2,
          "mode": 4
        }
      ]
    },
    {
      "name": "pCylinder3_things_0",
      "primitives": [
        {
          "attributes": {
            "NORMAL": 37,
            "POSITION": 36,
            "TEXCOORD_0": 38
          },
          "indices": 39,
          "material": 2,
          "mode": 4
        }
      ]
    },
    {
      "name": "pCylinder8_things_0",
      "primitives": [
        {
          "attributes": {
            "NORMAL": 41,
            "POSITION": 40,
            "TEXCOORD_0": 42
          },
          "indices": 43,
          "material": 2,
          "mode": 4
        }
      ]
    },
    {
      "name": "pCylinder6_things_0",
      "primitives": [
        {
          "attributes": {
            "NORMAL": 45,
            "POSITION": 44,
            "TEXCOORD_0": 46
          },
          "indices": 47,
          "material": 2,
          "mode": 4
        }
      ]
    },
    {
      "name": "pCylinder11_things_0",
      "primitives": [
        {
          "attributes": {
            "NORMAL": 49,
            "POSITION": 48,
            "TEXCOORD_0": 50
          },
          "indices": 51,
          "material": 2,
          "mode": 4
        }
      ]
    },
    {
      "name": "pCylinder10_things_0",
      "primitives": [
        {
          "attributes": {
            "NORMAL": 53,
            "POSITION": 52,
            "TEXCOORD_0": 54
          },
          "indices": 55,
          "material": 2,
          "mode": 4
        }
      ]
    },
    {
      "name": "pCylinder2_things_0",
      "primitives": [
        {
          "attributes": {
            "NORMAL": 57,
            "POSITION": 56,
            "TEXCOORD_0": 58
          },
          "indices": 59,
          "material": 2,
          "mode": 4
        }
      ]
    },
    {
      "name": "pCylinder4_things_0",
      "primitives": [
        {
          "attributes": {
            "NORMAL": 61,
            "POSITION": 60,
            "TEXCOORD_0": 62
          },
          "indices": 63,
          "material": 2,
          "mode": 4
        }
      ]
    },
    {
      "name": "pCylinder9_things_0",
      "primitives": [
        {
          "attributes": {
            "NORMAL": 65,
            "POSITION": 64,
            "TEXCOORD_0": 66
          },
          "indices": 67,
          "material": 2,
          "mode": 4
        }
      ]
    },
    {
      "name": "pPlane7_lambert5_0",
      "primitives": [
        {
          "attributes": {
            "NORMAL": 69,
            "POSITION": 68,
            "TEXCOORD_0": 70
          },
          "indices": 71,
          "material": 1,
          "mode": 4
        }
      ]
    }
  ],
  "nodes": [
    {
      "children": [
        1
      ],
      "matrix": [
        1.0,
        0.0,
        0.0,
        0.0,
        0.0,
        2.220446049250313e-16,
        -1.0,
        0.0,
        0.0,
        1.0,
        2.220446049250313e-16,
        0.0,
        0.0,
        0.0,
        0.0,
        1.0
      ],
      "name": "Sketchfab_model"
    },
    {
      "children": [
        2
      ],
      "matrix": [
        1.0,
        0.0,
        0.0,
        0.0,
        0.0,
        0.0,
        1.0,
        0.0,
        0.0,
        -1.0,
        0.0,
        0.0,
        0.0,
        0.0,
        0.0,
        1.0
      ],
      "name": "ad9919c93e144650ba497a9b27bf459d.fbx"
    },
    {
      "children": [
        3,
        41,
        44,
        47,
        50
      ],
      "name": "RootNode"
    },
    {
      "children": [
        4
      ],
      "name": "group7"
    },
    {
      "children": [
        5,
        7,
        9,
        11,
        13,
        15,
        17,
        19,
        21
      ],
      "matrix": [
        0.9959324947383461,
        0.026263947274168743,
        0.08618973835575784,
        0.0,
        0.007396653946061069,
        0.9295138831797519,
        -0.36871293778019343,
        0.0,
        -0.08979841554647013,
        0.3678507116340517,
        0.9255388152398932,
        0.0,
        -0.019467812031507492,
        -2.1957919597625732,
        -2.7452683448791504,
        1.0
      ],
      "name": "group8"
    },
    {
      "children": [
        6
      ],
      "matrix": [
        -5.733131104152955,
        -1.7232003311909432,
        1.8629477468558153,
        0.0,
        -0.16331592063397238,
        -0.061463107568014236,
        -0.5594493100873287,
        0.0,
        0.1996402392485378,
        -0.6500101387303752,
        0.013132938902858899,
        0.0,
        -3.150238275527954,
        14.778993606567383,
        10.955820083618164,
        1.0
      ],
      "name": "pPlane1"
    },
    {
      "mesh": 0,
      "name": "pPlane1_lambert3_0"
    },
    {
      "children": [
        8
      ],
      "matrix": [
        0.7775426493950591,
        6.004694572049016,
        1.627223546755214,
        0.0,
        -0.0026885077878237105,
        0.15360402896583,
        -0.565536831950817,
        0.0,
        -0.4808375091668917,
        0.0574176451258968,
        0.017880916753482766,
        0.0,
        -0.7095190286636353,
        17.626956939697266,
        11.074831008911133,
        1.0
      ],
      "name": "pPlane2"
    },
    {
      "mesh": 1,
      "name": "pPlane2_lambert3_0"
    },
    {
      "children": [
        10
      ],
      "matrix": [
        5.224598060964577,
        -3.171531749102604,
        1.3977651491352852,
        0.0,
        0.1061842562130828,
        -0.07681434826766012,
        -0.5711898053312194,
        0.0,
        0.33589729559447795,
        0.5483574165864736,
        -0.011300469679074911,
        0.0,
        0.9469974040985107,
        14.193061828613281,
        10.4161958694458,
        1.0
      ],
      "name": "pPlane3"
    },
    {
      "mesh": 2,
      "name": "pPlane3_lambert3_0"
    },
    {
      "children": [
        12
      ],
      "matrix": [
        5.316568268812751,
        2.4442058953880292,
        2.2513874234217455,
        0.0,
        0.1887054623361653,
        0.09330465864224775,
        -0.5469166510920792,
        0.0,
        -0.254379973272601,
        0.5480448911831346,
        0.005727108547066893,
        0.0,
        0.8135141134262085,
        16.24123764038086,
        10.776250839233398,
        1.0
      ],
      "name": "pPlane4"
    },
    {
      "mesh": 3,
      "name": "pPlane4_lambert3_0"
    },
    {
      "children": [
        14
      ],
      "matrix": [
        -4.695586988743927,
        3.9291056096818764,
        1.3499547716286473,
        0.0,
        -0.0570931595113,
        0.1273258165325676,
        -0.5691764591609174,
        0.0,
        -0.34665119982830556,
        -0.39580116170543894,
        -0.053769430129313164,
        0.0,
        -2.9357237815856934,
        16.7940616607666,
        10.438519477844238,
        1.0
      ],
      "name": "pPlane5"
    },
    {
      "mesh": 4,
      "name": "pPlane5_lambert3_0"
    },
    {
      "children": [
        16
      ],
      "matrix": [
        -0.18732033535736808,
        -6.104436024689791,
        1.4175887481102987,
        0.0,
        0.07101683668163797,
        -0.13365235184082763,
        -0.5661510327083901,
        0.0,
        0.5468802237761993,
        -0.0008069220899382328,
        0.06879003714802798,
        0.0,
        -1.274129867553711,
        13.071333885192871,
        10.581430435180664,
        1.0
      ],
      "name": "pPlane6"
    },
    {
      "mesh": 5,
      "name": "pPlane6_lambert3_0"
    },
    {
      "children": [
        18
      ],
      "matrix": [
        1.26102283821633,
        0.7602970343435005,
        5.664651897904194,
        0.0,
        0.15684989569331953,
        -0.8225140412776152,
        0.07547925156818959,
        0.0,
        1.5767210884206997,
        0.2651977182663393,
        -0.3865922178763706,
        0.0,
        -0.817973792552948,
        12.4392728805542,
        6.3231940269470215,
        1.0
      ],
      "name": "pPlane8"
    },
    {
      "mesh": 6,
      "name": "pPlane8_lambert5_0"
    },
    {
      "children": [
        20
      ],
      "matrix": [
        -5.418184830981289,
        1.2897669714485576,
        -1.7989679263535958,
        0.0,
        -0.16261303306874794,
        -0.8190754354275706,
        -0.09747198495183833,
        0.0,
        -0.9761480407041478,
        -0.14380032168757345,
        2.8368941584653333,
        0.0,
        -3.902817964553833,
        12.29223346710205,
        3.3563315868377686,
        1.0
      ],
      "name": "pPlane9"
    },
    {
      "mesh": 7,
      "name": "pPlane9_lambert5_0"
    },
    {
      "children": [
        22
      ],
      "matrix": [
        1.0,
        6.938893903907228e-18,
        0.0,
        0.0,
        -6.938893903907228e-18,
        1.0,
        5.55111512312578e-17,
        0.0,
        3.85185988877447e-34,
        -5.55111512312578e-17,
        1.0,
        0.0,
        0.0,
        0.0,
        0.0,
        1.0
      ],
      "name": "group9"
    },
    {
      "children": [
        23,
        25,
        27,
        29,
        31,
        33,
        35,
        37,
        39
      ],
      "matrix": [
        1.0,
        0.0,
        1.387778780781446e-17,
        0.0,
        -7.703719777548942e-34,
        1.0,
        5.55111512312578e-17,
        0.0,
        -1.387778780781446e-17,
        -5.55111512312578e-17,
        1.0,
        0.0,
        0.0,
        0.0,
        0.0,
        1.0
      ],
      "name": "group10"
    },
    {
      "children": [
        24
      ],
      "matrix": [
        1.0,
        0.0,
        0.0,
        0.0,
        0.0,
        1.0,
        1.1102230246251563e-16,
        0.0,
        0.0,
        -1.1102230246251563e-16,
        1.0,
        0.0,
        0.0,
        0.0,
        0.0,
        1.0
      ],
      "name": "pCylinder7"
    },
    {
      "mesh": 8,
      "name": "pCylinder7_things_0"
    },
    {
      "children": [
        26
      ],
      "matrix": [
        1.0,
        0.0,
        0.0,
        0.0,
        0.0,
        1.0,
        1.1102230246251563e-16,
        0.0,
        0.0,
        -1.1102230246251563e-16,
        1.0,
        0.0,
        0.0,
        0.0,
        0.0,
        1.0
      ],
      "name": "pCylinder3"
    },
    {
      "mesh": 9,
      "name": "pCylinder3_things_0"
    },
    {
      "children": [
        28
      ],
      "matrix": [
        1.0,
        0.0,
        0.0,
        0.0,
        0.0,
        1.0,
        1.1102230246251563e-16,
        0.0,
        0.0,
        -1.1102230246251563e-16,
        1.0,
        0.0,
        0.0,
        0.0,
        0.0,
        1.0
      ],
      "name": "pCylinder8"
    },
    {
      "mesh": 10,
      "name": "pCylinder8_things_0"
    },
    {
      "children": [
        30
      ],
      "matrix": [
        1.0,
        0.0,
        0.0,
        0.0,
        0.0,
        1.0,
        1.1102230246251563e-16,
        0.0,
        0.0,
        -1.1102230246251563e-16,
        1.0,
        0.0,
        0.0,
        0.0,
        0.0,
        1.0
      ],
      "name": "pCylinder6"
    },
    {
      "mesh": 11,
      "name": "pCylinder6_things_0"
    },
    {
      "children": [
        32
      ],
      "matrix": [
        1.0,
        0.0,
        0.0,
        0.0,
        0.0,
        1.0,
        1.1102230246251563e-16,
        0.0,
        0.0,
        -1.1102230246251563e-16,
        1.0,
        0.0,
        0.0,
        0.0,
        0.0,
        1.0
      ],
      "name": "pCylinder11"
    },
    {
      "mesh": 12,
      "name": "pCylinder11_things_0"
    },
    {
      "children": [
        34
      ],
      "matrix": [
        1.0,
        0.0,
        0.0,
        0.0,
        0.0,
        1.0,
        1.1102230246251563e-16,
        0.0,
        0.0,
        -1.1102230246251563e-16,
        1.0,
        0.0,
        0.0,
        0.0,
        0.0,
        1.0
      ],
      "name": "pCylinder10"
    },
    {
      "mesh": 13,
      "name": "pCylinder10_things_0"
    },
    {
      "children": [
        36
      ],
      "matrix": [
        1.0,
        0.0,
        0.0,
        0.0,
        0.0,
        1.0,
        1.1102230246251563e-16,
        0.0,
        0.0,
        -1.1102230246251563e-16,
        1.0,
        0.0,
        0.0,
        0.0,
        0.0,
        1.0
      ],
      "name": "pCylinder2"
    },
    {
      "mesh": 14,
      "name": "pCylinder2_things_0"
    },
    {
      "children": [
        38
      ],
      "matrix": [
        1.0,
        0.0,
        0.0,
        0.0,
        0.0,
        1.0,
        1.1102230246251563e-16,
        0.0,
        0.0,
        -1.1102230246251563e-16,
        1.0,
        0.0,
        0.0,
        0.0,
        0.0,
        1.0
      ],
      "name": "pCylinder4"
    },
    {
      "mesh": 15,
      "name": "pCylinder4_things_0"
    },
    {
      "children": [
        40
      ],
      "matrix": [
        1.0,
        0.0,
        0.0,
        0.0,
        0.0,
        1.0,
        1.1102230246251563e-16,
        0.0,
        0.0,
        -1.1102230246251563e-16,
        1.0,
        0.0,
        0.0,
        0.0,
        0.0,
        1.0
      ],
      "name": "pCylinder9"
    },
    {
      "mesh": 16,
      "name": "pCylinder9_things_0"
    },
    {
      "children": [
        42
      ],
      "matrix": [
        0.5647353490593775,
        0.4265941103087053,
        -0.7064640476150978,
        0.0,
        0.49563471211493915,
        0.5091448448685572,
        0.7036460467383544,
        0.0,
        0.6598637872087878,
        -0.7475219006782993,
        0.0760972426358435,
        0.0,
        8.783791542053223,
        24.32244873046875,
        12.462850570678711,
        1.0
      ],
      "name": "spotLight2"
    },
    {
      "children": [
        43
      ],
      "matrix": [
        1.0,
        0.0,
        0.0,
        0.0,
        0.0,
        2.220446049250313e-16,
        1.0,
        0.0,
        0.0,
        -1.0,
        2.220446049250313e-16,
        0.0,
        0.0,
        0.0,
        0.0,
        1.0
      ],
      "name": "Object_42"
    },
    {
      "name": "Object_43"
    },
    {
      "children": [
        45
      ],
      "matrix": [
        -0.26759943764452143,
        -0.5190897279687692,
        0.8117489730758178,
        0.0,
        -0.7914773494387168,
        -0.3620419356866944,
        -0.492431967006301,
        0.0,
        0.5495035453004822,
        -0.7742554430687204,
        -0.31396554362009255,
        0.0,
        -35.34335708618164,
        1.550430417060852,
        -8.174141883850098,
        1.0
      ],
      "name": "spotLight1"
    },
    {
      "children": [
        46
      ],
      "matrix": [
        1.0,
        0.0,
        0.0,
        0.0,
        0.0,
        2.220446049250313e-16,
        1.0,
        0.0,
        0.0,
        -1.0,
        2.220446049250313e-16,
        0.0,
        0.0,
        0.0,
        0.0,
        1.0
      ],
      "name": "Object_45"
    },
    {
      "name": "Object_46"
    },
    {
      "children": [
        48
      ],
      "matrix": [
        1.0,
        0.0,
        0.0,
        0.0,
        0.0,
        1.0,
        0.0,
        0.0,
        0.0,
        0.0,
        1.0,
        0.0,
        0.3588865399360657,
        19.08159065246582,
        -12.108431816101074,
        1.0
      ],
      "name": "ambientLight1"
    },
    {
      "children": [
        49
      ],
      "matrix": [
        1.0,
        0.0,
        0.0,
        0.0,
        0.0,
        2.220446049250313e-16,
        1.0,
        0.0,
        0.0,
        -1.0,
        2.220446049250313e-16,
        0.0,
        0.0,
        0.0,
        0.0,
        1.0
      ],
      "name": "Object_48"
    },
    {
      "name": "Object_49"
    },
    {
      "children": [
        51
      ],
      "name": "pPlane7"
    },
    {
      "mesh": 17,
      "name": "pPlane7_lambert5_0"
    }
  ],
  "scene": 0,
  "scenes": [
    {
      "name": "Sketchfab_Scene",
      "nodes": [
        0
      ]
    }
  ]
}
